<?xml version="1.0" encoding="UTF-8" standalone="no"?>
<svg
   xmlns:dc="http://purl.org/dc/elements/1.1/"
   xmlns:cc="http://creativecommons.org/ns#"
   xmlns:rdf="http://www.w3.org/1999/02/22-rdf-syntax-ns#"
   xmlns:svg="http://www.w3.org/2000/svg"
   xmlns="http://www.w3.org/2000/svg"
   xmlns:sodipodi="http://sodipodi.sourceforge.net/DTD/sodipodi-0.dtd"
   xmlns:inkscape="http://www.inkscape.org/namespaces/inkscape"
   viewBox="-960 -489.5 1021.7332 679.74854"
   width="1021.7332"
   height="679.74854"
   version="1.1"
   id="svg232"
   sodipodi:docname="nn.svg"
   inkscape:version="0.92.3 (2405546, 2018-03-11)">
  <metadata
     id="metadata238">
    <rdf:RDF>
      <cc:Work
         rdf:about="">
        <dc:format>image/svg+xml</dc:format>
        <dc:type
           rdf:resource="http://purl.org/dc/dcmitype/StillImage" />
        <dc:title></dc:title>
      </cc:Work>
    </rdf:RDF>
  </metadata>
  <defs
     id="defs236" />
  <sodipodi:namedview
     pagecolor="#ffffff"
     bordercolor="#666666"
     borderopacity="1"
     objecttolerance="10"
     gridtolerance="10"
     guidetolerance="10"
     inkscape:pageopacity="0"
     inkscape:pageshadow="2"
     inkscape:window-width="1920"
     inkscape:window-height="1016"
     id="namedview234"
     showgrid="false"
     inkscape:snap-global="false"
     fit-margin-top="0"
     fit-margin-left="0"
     fit-margin-right="0"
     fit-margin-bottom="0"
     inkscape:zoom="0.48212462"
     inkscape:cx="794.50432"
     inkscape:cy="158.48265"
     inkscape:window-x="0"
     inkscape:window-y="27"
     inkscape:window-maximized="1"
     inkscape:current-layer="svg232" />
  <path
     style="fill:none;stroke:#999999;stroke-width:0.69999999;stroke-linecap:butt;stroke-linejoin:miter;stroke-miterlimit:4;stroke-dasharray:none;stroke-opacity:1"
     d="m -141.08381,137.22238 v -554.3927"
     id="path1088"
     inkscape:connector-curvature="0"
     sodipodi:nodetypes="cc" />
  <path
     d="m -844.24772,-167.04741 -4.13817,-0.57957 m 0,-288.82674 v 288.82674 m 0,0 -111.10706,105.772414 m 115.24523,-394.019584 v 288.82674 m 0,0 -111.10706,105.772424 m 260.25128,-90.865804 -132.42147,-18.5464 m 0,-268.19626 v 268.19626 m 0,0 -103.17084,98.217254"
     style="fill:none;stroke:#000000;stroke-width:1;stroke-linecap:round"
     id="path6"
     inkscape:connector-curvature="0" />
  <path
     d="m -844.24772,-167.04741 -4.13817,-0.57957 v -288.82674 z"
     style="fill:#eeeeee;fill-opacity:0.4"
     id="path8"
     inkscape:connector-curvature="0" />
  <path
     d="m -695.1035,-420.33705 v 268.19626 m 0,0 -103.17084,98.217244"
     style="fill:none;stroke:#000000;stroke-width:1;stroke-linecap:round"
     id="path10"
     inkscape:connector-curvature="0" />
  <path
     d="m -695.1035,-152.14079 -132.42147,-18.5464 v -268.19626 z m -149.14422,-303.73336 v 288.82674 l -4.13817,-289.40631 z"
     style="fill:#eeeeee;fill-opacity:0.4"
     id="path12"
     inkscape:connector-curvature="0" />
  <path
     d="m -868.82245,-209.6469 -4.13817,-0.57958 m 0,-3.09457 v 3.09457 m 0,0 -1.19043,1.13328"
     style="fill:none;stroke:#000000;stroke-width:1;stroke-linecap:round"
     id="path14"
     inkscape:connector-curvature="0" />
  <path
     d="m -868.82245,-209.6469 -4.13817,-0.57958 v -3.09457 z"
     style="fill:#99ddff;fill-opacity:0.4"
     id="path16"
     inkscape:connector-curvature="0" />
  <path
     d="m -868.82245,-212.74148 -4.13817,-0.57957 m 0,0 -1.19043,1.13327"
     style="fill:none;stroke:#000000;stroke-width:1;stroke-linecap:round"
     id="path18"
     inkscape:connector-curvature="0" />
  <path
     d="m -874.15105,-209.0932 1.19043,-1.13328 4.13817,0.57958 z"
     style="fill:#99ddff;fill-opacity:0.4"
     id="path20"
     inkscape:connector-curvature="0" />
  <path
     d="m -868.82245,-212.74148 v 3.09458 m 0,0 -1.19043,1.13327 m 1.19043,-4.22785 v 3.09457 m 0,0 -1.19043,1.13328 m 1.19043,-1.13328 17.92538,-1.50755"
     style="fill:none;stroke:#000000;stroke-width:1;stroke-linecap:round"
     id="path22"
     inkscape:connector-curvature="0" />
  <path
     d="m -872.96062,-213.32105 v 3.09457 l -1.19043,-1.9613 z m 4.13817,0.57957 v 3.09458 l -4.13817,-3.67415 z m -4.13817,2.515 -1.19043,1.13328 v -3.09458 z"
     style="fill:#99ddff;fill-opacity:0.4"
     id="path24"
     inkscape:connector-curvature="0" />
  <path
     d="m -868.82245,-212.74148 -1.19043,1.13328 m 1.19043,-1.13328 -1.19043,1.13328 m 1.19043,-1.13328 17.92538,1.58702"
     style="fill:none;stroke:#000000;stroke-width:1;stroke-linecap:round"
     id="path26"
     inkscape:connector-curvature="0" />
  <path
     d="m -870.01288,-208.51363 1.19043,-1.13327 v -3.09458 z"
     style="fill:#99ddff;fill-opacity:0.4"
     id="path28"
     inkscape:connector-curvature="0" />
  <path
     d="m -868.82245,-212.74148 v 3.09458 l -1.19043,1.13327 z"
     style="fill:#ffbbbb;fill-opacity:0.4"
     id="path30"
     inkscape:connector-curvature="0" />
  <path
     d="m -874.15105,-212.18778 v 3.09458 m 0,0 4.13817,0.57957"
     style="fill:none;stroke:#000000;stroke-width:1;stroke-linecap:round"
     id="path32"
     inkscape:connector-curvature="0" />
  <path
     d="m -870.01288,-208.51363 -4.13817,-0.57957 5.3286,-0.5537 z m 0,-3.09457 1.19043,-1.13328 -4.13817,-0.57957 z m -4.13817,-0.57958 4.13817,0.57958 -2.94774,-1.71285 z"
     style="fill:#99ddff;fill-opacity:0.4"
     id="path34"
     inkscape:connector-curvature="0" />
  <path
     d="m -874.15105,-212.18778 4.13817,0.57958"
     style="fill:none;stroke:#000000;stroke-width:1;stroke-linecap:round"
     id="path36"
     inkscape:connector-curvature="0" />
  <path
     d="m -874.15105,-212.18778 v 3.09458 l 4.13817,-2.515 z m 4.13817,0.57958 v 3.09457 l 1.19043,-4.22785 z"
     style="fill:#99ddff;fill-opacity:0.4"
     id="path38"
     inkscape:connector-curvature="0" />
  <path
     d="m -868.82245,-212.74148 -1.19043,4.22785 v -3.09457 z"
     style="fill:#ffbbbb;fill-opacity:0.4"
     id="path40"
     inkscape:connector-curvature="0" />
  <path
     d="m -874.15105,-209.0932 4.13817,0.57957 v -3.09457 z"
     style="fill:#99ddff;fill-opacity:0.4"
     id="path42"
     inkscape:connector-curvature="0" />
  <path
     d="m -870.01288,-211.6082 v 3.09457 m 0,0 v -3.09457 m 0,3.09457 19.11581,-2.64083"
     style="fill:none;stroke:#000000;stroke-width:1;stroke-linecap:round"
     id="path44"
     inkscape:connector-curvature="0" />
  <path
     d="m -959.49295,-61.854566 111.10706,-105.772414 4.13817,0.57957 z"
     style="fill:#eeeeee;fill-opacity:0.4"
     id="path46"
     inkscape:connector-curvature="0" />
  <path
     d="m -413.5378,-118.68778 -264.84295,-37.09279 m 0,-247.56578 v 247.56578 m 0,0 -95.23462,90.662074 m -96.39751,-146.489704 19.11581,0.45374 m 132.73515,47.60411 -132.42148,-18.5464 m 0,-3.09457 v 3.09457 m 0,0 -1.19043,1.13328 m 133.61191,14.31855 -132.42148,-18.5464 m 0,0 -1.19043,1.13328"
     style="fill:none;stroke:#000000;stroke-width:1;stroke-linecap:round"
     id="path48"
     inkscape:connector-curvature="0" />
  <path
     d="m -868.82245,-209.6469 v -3.09458 l 17.92539,1.58702 z"
     style="fill:#ffbbbb;fill-opacity:0.4"
     id="path50"
     inkscape:connector-curvature="0" />
  <path
     d="m -850.5834,-185.19132 v 3.09457 l -1.19043,-1.96129 z"
     style="fill:#99ddff;fill-opacity:0.4"
     id="path52"
     inkscape:connector-curvature="0" />
  <path
     d="m -870.01288,-208.51363 1.19043,-1.13327 17.92539,-1.50756 z"
     style="fill:#ffbbbb;fill-opacity:0.4"
     id="path54"
     inkscape:connector-curvature="0" />
  <path
     d="m -850.5834,-182.09675 -1.19043,1.13328 v -3.09457 z"
     style="fill:#99ddff;fill-opacity:0.4"
     id="path56"
     inkscape:connector-curvature="0" />
  <path
     d="m -868.82245,-212.74148 -1.19043,1.13328 19.11582,0.45374 z"
     style="fill:#ffbbbb;fill-opacity:0.4"
     id="path58"
     inkscape:connector-curvature="0" />
  <path
     d="m -851.77383,-184.05804 v 3.09457 m 0,0 132.42148,18.5464"
     style="fill:none;stroke:#000000;stroke-width:1;stroke-linecap:round"
     id="path60"
     inkscape:connector-curvature="0" />
  <path
     d="m -870.01288,-211.6082 v 3.09457 l 19.11582,-2.64083 z"
     style="fill:#ffbbbb;fill-opacity:0.4"
     id="path62"
     inkscape:connector-curvature="0" />
  <path
     d="m -851.77383,-184.05804 132.42148,18.54639"
     style="fill:none;stroke:#000000;stroke-width:1;stroke-linecap:round"
     id="path64"
     inkscape:connector-curvature="0" />
  <path
     d="m -718.16192,-163.55035 -132.42148,-18.5464 v -3.09457 z m -133.61191,-17.41312 1.19043,-1.13328 132.42148,18.5464 z m 0,-3.09457 132.42148,18.54639 -131.23105,-19.67967 z m 0,0 v 3.09457 l 132.42148,15.45182 z"
     style="fill:#99ddff;fill-opacity:0.4"
     id="path66"
     inkscape:connector-curvature="0" />
  <path
     d="m -844.24772,-455.87415 -4.13817,-0.57957 m 0,0 -111.10706,105.77242 m 115.24523,-105.19285 -111.10706,105.77242"
     style="fill:none;stroke:#000000;stroke-width:1;stroke-linecap:round"
     id="path68"
     inkscape:connector-curvature="0" />
  <path
     d="m -930.69581,-72.469936 103.17084,-98.217254 132.42147,18.5464 z"
     style="fill:#eeeeee;fill-opacity:0.4"
     id="path70"
     inkscape:connector-curvature="0" />
  <path
     d="m -718.16192,-166.64492 v 3.09457 l -132.42148,-21.64097 z"
     style="fill:#99ddff;fill-opacity:0.4"
     id="path72"
     inkscape:connector-curvature="0" />
  <path
     d="m -695.1035,-420.33705 v 268.19626 l -132.42147,-286.74266 z"
     style="fill:#eeeeee;fill-opacity:0.4"
     id="path74"
     inkscape:connector-curvature="0" />
  <path
     d="m -719.35235,-162.41707 -132.42148,-18.5464 133.61191,17.41312 z m 0,-3.09458 1.19043,-1.13327 -132.42148,-18.5464 z m -132.42148,-15.45182 132.42148,18.5464 v -3.09458 z"
     style="fill:#99ddff;fill-opacity:0.4"
     id="path76"
     inkscape:connector-curvature="0" />
  <path
     d="m -695.1035,-420.33705 -132.42147,-18.5464 m 0,0 -103.17084,98.21725"
     style="fill:none;stroke:#000000;stroke-width:1;stroke-linecap:round"
     id="path78"
     inkscape:connector-curvature="0" />
  <path
     d="M -955.35478,-61.274986 -844.24772,-167.04741 V -455.87415 Z"
     style="fill:#eeeeee;fill-opacity:0.4"
     id="path80"
     inkscape:connector-curvature="0" />
  <path
     d="m -718.16192,-166.64492 v 3.09457 m 0,0 -1.19043,1.13328 m 1.19043,-4.22785 v 3.09457 m 0,0 -1.19043,1.13328 m 1.19043,-1.13328 17.94704,-3.66733 m -17.94704,0.57276 -1.19043,1.13327 m 1.19043,-1.13327 -1.19043,1.13328 m 1.19043,-1.13328 17.94704,-0.57276"
     style="fill:none;stroke:#000000;stroke-width:1;stroke-linecap:round"
     id="path82"
     inkscape:connector-curvature="0" />
  <path
     d="m -719.35235,-162.41707 1.19043,-1.13328 v -3.09457 z"
     style="fill:#99ddff;fill-opacity:0.4"
     id="path84"
     inkscape:connector-curvature="0" />
  <path
     d="m -718.16192,-166.64492 v 3.09457 l -1.19043,1.13328 z"
     style="fill:#ffbbbb;fill-opacity:0.4"
     id="path86"
     inkscape:connector-curvature="0" />
  <path
     d="m -719.35235,-165.51165 v 3.09458 l 1.19043,-4.22785 z"
     style="fill:#99ddff;fill-opacity:0.4"
     id="path88"
     inkscape:connector-curvature="0" />
  <path
     d="m -718.16192,-166.64492 -1.19043,4.22785 v -3.09458 z"
     style="fill:#ffbbbb;fill-opacity:0.4"
     id="path90"
     inkscape:connector-curvature="0" />
  <path
     d="m -719.35235,-165.51165 v 3.09458 m 0,0 v -3.09457 m 0,3.09457 19.13747,-4.80061 m -19.13747,1.70604 19.13747,-1.70604"
     style="fill:none;stroke:#000000;stroke-width:1;stroke-linecap:round"
     id="path92"
     inkscape:connector-curvature="0" />
  <path
     d="m -718.16192,-163.55035 v -3.09457 l 17.94704,-0.57276 z m -1.19043,1.13328 1.19043,-1.13328 17.94704,-3.66733 z m 1.19043,-4.22785 -1.19043,1.13327 19.13747,-1.70603 z m -1.19043,1.13327 v 3.09458 l 19.13747,-4.80061 z"
     style="fill:#ffbbbb;fill-opacity:0.4"
     id="path94"
     inkscape:connector-curvature="0" />
  <path
     d="m -413.5378,-118.68778 -264.84295,-37.09279 v -247.56578 z m -434.84809,-337.76594 v 288.82674 L -959.49295,-350.6813 Z"
     style="fill:#eeeeee;fill-opacity:0.4"
     id="path96"
     inkscape:connector-curvature="0" />
  <path
     d="m -695.1035,-420.33705 -103.17084,98.21725"
     style="fill:none;stroke:#000000;stroke-width:1;stroke-linecap:round"
     id="path98"
     inkscape:connector-curvature="0" />
  <path
     d="m -827.52497,-438.88345 v 268.19626 L -930.69581,-340.6662 Z m -127.82981,377.608464 -4.13817,-0.57958 115.24523,-105.192844 z"
     style="fill:#eeeeee;fill-opacity:0.4"
     id="path100"
     inkscape:connector-curvature="0" />
  <path
     d="m -413.5378,-366.25355 v 247.56577 m 0,0 -95.23462,90.662074 m 95.23462,-338.227844 -264.84295,-37.0928 m 0,0 -95.23462,90.66208"
     style="fill:none;stroke:#000000;stroke-width:1;stroke-linecap:round"
     id="path102"
     inkscape:connector-curvature="0" />
  <path
     d="m -798.27434,-53.923546 103.17084,-98.217244 v -268.19626 z m 24.65897,-11.19495 95.23462,-90.662074 264.84295,37.09279 z m -181.73941,-284.983234 111.10706,-105.77242 -4.13817,-0.57957 z m 106.96889,182.47475 -111.10706,105.772414 V -350.6813 Z m 434.84809,-198.62657 v 247.56577 l -264.84295,-284.65857 z m -384.73654,312.330004 -132.42147,-18.54639 235.59231,-79.670854 z m -29.25063,-116.763644 -103.17084,98.217254 V -340.6662 Z m 149.14422,-232.65916 v 247.56578 l -95.23462,-156.9037 z m -119.89359,81.22655 103.17084,-98.21725 -132.42147,-18.5464 z m -157.08044,-27.98193 v 288.826744 l 111.10706,-394.599164 z"
     style="fill:#eeeeee;fill-opacity:0.4"
     id="path104"
     inkscape:connector-curvature="0" />
  <path
     d="m -959.49295,-350.6813 v 288.826734 m 0,0 4.13817,0.57958 m 0,-288.826744 v 288.826744 m 24.65897,-279.391214 v 268.196264 m 0,0 132.42147,18.54639 m 646.46169,-63.999494 -264.84295,-37.09279 m 0,-123.78288 v 123.78288 m 0,0 -47.61731,45.33104"
     style="fill:none;stroke:#000000;stroke-width:1;stroke-linecap:round"
     id="path106"
     inkscape:connector-curvature="0" />
  <path
     d="m -678.38075,-155.78057 -95.23462,90.662074 V -312.68427 Z"
     style="fill:#eeeeee;fill-opacity:0.4"
     id="path108"
     inkscape:connector-curvature="0" />
  <path
     d="m -413.5378,-366.25355 -95.23462,90.66207 m 21.92946,171.71175 -264.84295,-37.09279 m 0,-2.06305 v 2.06305 m 0,0 -0.79362,0.75552 m 265.63657,34.27422 -264.84295,-37.09279 m 0,0 -0.79362,0.75552"
     style="fill:none;stroke:#000000;stroke-width:1;stroke-linecap:round"
     id="path110"
     inkscape:connector-curvature="0" />
  <path
     d="m -751.68591,-143.03557 v 2.06305 l -0.79362,-1.30753 z m 0,2.06305 -0.79362,0.75552 v -2.06305 z"
     style="fill:#99ddff;fill-opacity:0.4"
     id="path112"
     inkscape:connector-curvature="0" />
  <path
     d="m -752.47953,-142.28005 v 2.06305 m 0,0 264.84295,37.09279 m -264.84295,-39.15584 264.84295,37.09279"
     style="fill:none;stroke:#000000;stroke-width:1;stroke-linecap:round"
     id="path114"
     inkscape:connector-curvature="0" />
  <path
     d="m -959.49295,-350.6813 4.13817,0.57957 106.96889,-106.35199 z m 450.72053,322.655594 95.23462,-90.662074 V -366.25355 Z M -798.27434,-322.1198 V -53.923546 L -695.1035,-420.33705 Z m 289.50192,294.094094 -264.84295,-37.09279 360.07757,-53.569284 z m -450.72053,-33.82886 4.13817,0.57958 V -350.10173 Z m 28.79714,-278.811634 132.42147,18.5464 -29.25063,-116.76365 z"
     style="fill:#eeeeee;fill-opacity:0.4"
     id="path116"
     inkscape:connector-curvature="0" />
  <path
     d="m -798.27434,-322.1198 v 268.196254 m 24.65897,-258.760724 v 247.565774 m 0,0 264.84295,37.09279"
     style="fill:none;stroke:#000000;stroke-width:1;stroke-linecap:round"
     id="path118"
     inkscape:connector-curvature="0" />
  <path
     d="m -486.84296,-103.87973 -264.84295,-37.09279 v -2.06305 z m -265.63657,-36.33727 0.79362,-0.75552 264.84295,37.09279 z"
     style="fill:#99ddff;fill-opacity:0.4"
     id="path120"
     inkscape:connector-curvature="0" />
  <path
     d="M -151.81265,-117.92304 -416.6556,-155.01583 V -278.79871 Z"
     style="fill:#eeeeee;fill-opacity:0.4"
     id="path122"
     inkscape:connector-curvature="0" />
  <path
     d="m -151.81265,-241.70592 -264.84295,-37.09279 m 0,0 -47.61731,45.33103"
     style="fill:none;stroke:#000000;stroke-width:1;stroke-linecap:round"
     id="path124"
     inkscape:connector-curvature="0" />
  <path
     d="m -752.47953,-142.28005 264.84295,37.09279 -264.04933,-37.84831 z m 0,0 v 2.06305 l 264.84295,35.02974 z"
     style="fill:#99ddff;fill-opacity:0.4"
     id="path126"
     inkscape:connector-curvature="0" />
  <path
     d="m -508.77242,-275.59148 95.23462,-90.66207 -264.84295,-37.0928 z m -421.92339,203.121544 132.42147,18.54639 V -322.1198 Z m 466.4229,-37.214854 47.61731,-45.33104 264.84295,37.09279 z M -959.49295,-350.6813 v 288.826734 l 4.13817,-288.247164 z m 542.83735,71.88259 v 123.78288 l -47.61731,-78.45185 z"
     style="fill:#eeeeee;fill-opacity:0.4"
     id="path128"
     inkscape:connector-curvature="0" />
  <path
     d="m -486.84296,-105.94278 v 2.06305 l -264.84295,-39.15584 z m -0.79362,2.81857 -264.84295,-37.09279 265.63657,36.33727 z m 0,-2.06305 0.79362,-0.75552 -264.84295,-37.09279 z m -264.84295,-35.02974 264.84295,37.09279 v -2.06305 z"
     style="fill:#99ddff;fill-opacity:0.4"
     id="path130"
     inkscape:connector-curvature="0" />
  <path
     d="M -930.69581,-340.6662 V -72.469936 L -798.27434,-322.1198 Z"
     style="fill:#eeeeee;fill-opacity:0.4"
     id="path132"
     inkscape:connector-curvature="0" />
  <path
     d="m -78.544347,116.18404 -20.69085,-2.89787 m 0,-528.14032 v 528.14032 m 0,0 -7.936223,7.55517"
     style="fill:none;stroke:#000000;stroke-width:1;stroke-linecap:round"
     id="path134"
     inkscape:connector-curvature="0" />
  <path
     d="m -416.6556,-155.01583 -47.61731,45.33104 v -123.78289 z"
     style="fill:#eeeeee;fill-opacity:0.4"
     id="path136"
     inkscape:connector-curvature="0" />
  <path
     d="m -151.81265,-241.70592 v 123.78288 m 0,0 -47.61731,45.331044"
     style="fill:none;stroke:#000000;stroke-width:1;stroke-linecap:round"
     id="path138"
     inkscape:connector-curvature="0" />
  <path
     d="m -151.81265,-241.70592 v 123.78288 L -416.6556,-278.79871 Z"
     style="fill:#eeeeee;fill-opacity:0.4"
     id="path140"
     inkscape:connector-curvature="0" />
  <path
     d="m -78.544347,-411.95627 v 528.14031 m 0,0 -7.93622,7.55518"
     style="fill:none;stroke:#000000;stroke-width:1;stroke-linecap:round"
     id="path142"
     inkscape:connector-curvature="0" />
  <path
     d="m -107.17142,120.84134 7.936223,-7.55517 20.69085,2.89787 z m -666.44395,-433.52561 264.84295,37.09279 -169.60833,-127.75487 z"
     style="fill:#eeeeee;fill-opacity:0.4"
     id="path144"
     inkscape:connector-curvature="0" />
  <path
     d="m -486.84297,-105.94278 33.33638,-41.99591 m -33.33638,44.05896 33.33638,-44.05896 m -34.13,44.81447 34.13,-44.81447 m -34.13,42.75143 34.13,-42.75143 m -477.18922,-192.72751 132.42147,18.5464"
     style="fill:none;stroke:#000000;stroke-width:1;stroke-linecap:round"
     id="path146"
     inkscape:connector-curvature="0" />
  <path
     d="m -86.480567,123.73922 -20.690853,-2.89788 28.627073,-4.6573 z"
     style="fill:#eeeeee;fill-opacity:0.4"
     id="path148"
     inkscape:connector-curvature="0" />
  <path
     d="m -486.84296,-103.87973 v -2.06305 l 33.33637,-41.99591 z m -0.79362,0.75552 0.79362,-0.75552 33.33637,-44.05896 z m 0.79362,-2.81857 -0.79362,0.75552 34.12999,-42.75143 z"
     style="fill:#ffbbbb;fill-opacity:0.4"
     id="path150"
     inkscape:connector-curvature="0" />
  <path
     d="m -959.49295,-350.6813 4.13817,0.57957"
     style="fill:none;stroke:#000000;stroke-width:1;stroke-linecap:round"
     id="path152"
     inkscape:connector-curvature="0" />
  <path
     d="m -487.63658,-105.18726 v 2.06305 l 34.12999,-44.81448 z"
     style="fill:#ffbbbb;fill-opacity:0.4"
     id="path154"
     inkscape:connector-curvature="0" />
  <path
     d="m -107.17142,-407.29898 v 528.14032 m 0,0 20.690853,2.89788 m -400.362393,-229.682 v 2.06305 m 0,0 -0.79362,0.75552 m 0.79361,-2.81857 v 2.06305 m 0,0 -0.79362,0.75551 m 0.79363,-2.81856 -0.79362,0.75552 m 0.79361,-0.75552 -0.79362,0.75552"
     style="fill:none;stroke:#000000;stroke-width:1;stroke-linecap:round"
     id="path156"
     inkscape:connector-curvature="0" />
  <path
     d="m -487.63658,-103.12421 0.79362,-0.75552 v -2.06305 z"
     style="fill:#99ddff;fill-opacity:0.4"
     id="path158"
     inkscape:connector-curvature="0" />
  <path
     d="m -486.84296,-105.94278 v 2.06305 l -0.79362,0.75552 z"
     style="fill:#ffbbbb;fill-opacity:0.4"
     id="path160"
     inkscape:connector-curvature="0" />
  <path
     d="m -487.63658,-105.18726 v 2.06305 l 0.79362,-2.81857 z"
     style="fill:#99ddff;fill-opacity:0.4"
     id="path162"
     inkscape:connector-curvature="0" />
  <path
     d="m -486.84296,-105.94278 -0.79362,2.81857 v -2.06305 z"
     style="fill:#ffbbbb;fill-opacity:0.4"
     id="path164"
     inkscape:connector-curvature="0" />
  <path
     d="m -487.63658,-105.18726 v 2.06305 m -1e-5,-10e-6 v -2.06304 m 23.36368,-128.28042 v 123.78289 m 0,0 264.84295,37.092794 M -86.480567,-404.4011 v 528.14032"
     style="fill:none;stroke:#000000;stroke-width:1;stroke-linecap:round"
     id="path166"
     inkscape:connector-curvature="0" />
  <path
     d="m -508.77242,-275.59148 v 247.565774 l 95.23462,-338.227844 z m 309.34246,202.999484 -264.84295,-37.092794 312.46026,-8.23825 z"
     style="fill:#eeeeee;fill-opacity:0.4"
     id="path168"
     inkscape:connector-curvature="0" />
  <path
     d="M -508.77242,-275.59148 V -28.025706"
     style="fill:none;stroke:#000000;stroke-width:1;stroke-linecap:round"
     id="path170"
     inkscape:connector-curvature="0" />
  <path
     d="m -773.61537,-65.118496 264.84295,37.09279 V -275.59148 Z"
     style="fill:#eeeeee;fill-opacity:0.4"
     id="path172"
     inkscape:connector-curvature="0" />
  <path
     d="m -151.81265,-241.70592 -47.61731,45.33104"
     style="fill:none;stroke:#000000;stroke-width:1;stroke-linecap:round"
     id="path174"
     inkscape:connector-curvature="0" />
  <path
     d="M -773.61537,-312.68427 V -65.118496 L -508.77242,-275.59148 Z"
     style="fill:#eeeeee;fill-opacity:0.4"
     id="path176"
     inkscape:connector-curvature="0" />
  <path
     d="m -773.61537,-312.68427 264.84295,37.09279"
     style="fill:none;stroke:#000000;stroke-width:1;stroke-linecap:round"
     id="path178"
     inkscape:connector-curvature="0" />
  <path
     d="m -199.42996,-72.591996 47.61731,-45.331044 v -123.78288 z m 0,-123.782884 47.61731,-45.33104 -264.84295,-37.09279 z m -264.84295,-37.0928 264.84295,37.0928 -217.22564,-82.42383 z m 385.728563,349.65172 -20.69085,-2.89787 v -528.14032 z"
     style="fill:#eeeeee;fill-opacity:0.4"
     id="path180"
     inkscape:connector-curvature="0" />
  <path
     d="m -464.27291,-233.46768 264.84295,37.0928"
     style="fill:none;stroke:#000000;stroke-width:1;stroke-linecap:round"
     id="path182"
     inkscape:connector-curvature="0" />
  <path
     d="m -99.235197,113.28617 -7.936223,7.55517 v -528.14032 z m 12.75463,10.45305 7.93622,-7.55518 v -528.14031 z m -377.792343,-357.2069 v 123.78289 l 264.84295,-86.69009 z"
     style="fill:#eeeeee;fill-opacity:0.4"
     id="path184"
     inkscape:connector-curvature="0" />
  <path
     d="m -164.24134,-155.55513 11.72482,1.64213"
     style="fill:none;stroke:#000000;stroke-width:1;stroke-linecap:round"
     id="path186"
     inkscape:connector-curvature="0" />
  <path
     d="m -107.17142,120.84134 20.690853,2.89788 V -404.4011 Z"
     style="fill:#eeeeee;fill-opacity:0.4"
     id="path188"
     inkscape:connector-curvature="0" />
  <path
     d="m -153.45999,-152.21793 0.94347,0.88374 6.89695,-1.61285 z m 1.52657,-4.33647 -1.1662,1.1102 7.48005,2.49716 z m -1.1662,1.1102 -0.36037,3.22627 7.84042,-0.72911 z"
     style="fill:#000000"
     id="path190"
     inkscape:connector-curvature="0" />
  <path
     d="m -464.27291,-109.68479 264.84295,37.092794 V -196.37488 Z"
     style="fill:#eeeeee;fill-opacity:0.4"
     id="path192"
     inkscape:connector-curvature="0" />
  <path
     d="m -122.85963,-149.75938 11.72482,1.64213 m 73.972173,26.65737 -20.69085,-2.89788 m 0,-41.26096 v 41.26096 m 0,0 -7.93622,7.55517"
     style="fill:none;stroke:#000000;stroke-width:1;stroke-linecap:round"
     id="path194"
     inkscape:connector-curvature="0" />
  <path
     d="m -112.07828,-146.42218 0.94347,0.88374 6.89695,-1.61285 z m 1.52657,-4.33647 -1.1662,1.1102 7.48005,2.49716 z m -1.1662,1.1102 -0.36037,3.22627 7.84042,-0.72911 z"
     style="fill:#000000"
     id="path196"
     inkscape:connector-curvature="0" />
  <path
     d="m -199.42996,-196.37488 v 123.782884 l 47.61731,-169.113924 z"
     style="fill:#eeeeee;fill-opacity:0.4"
     id="path198"
     inkscape:connector-curvature="0" />
  <path
     d="m -37.162637,-162.72084 v 41.26096 m 0,0 -7.93622,7.55517"
     style="fill:none;stroke:#000000;stroke-width:1;stroke-linecap:round"
     id="path200"
     inkscape:connector-curvature="0" />
  <path
     d="m -37.162637,-121.45988 -20.69085,-2.89788 v -41.26096 z m -28.62707,4.65729 7.93622,-7.55517 20.69085,2.89788 z"
     style="fill:#eeeeee;fill-opacity:0.4"
     id="path202"
     inkscape:connector-curvature="0" />
  <path
     d="m -199.42996,-196.37488 v 123.782884 m 117.952053,-71.371634 11.72481,1.64213"
     style="fill:none;stroke:#000000;stroke-width:1;stroke-linecap:round"
     id="path204"
     inkscape:connector-curvature="0" />
  <path
     d="m -37.162637,-162.72084 v 41.26096 l -20.69085,-44.15884 z"
     style="fill:#eeeeee;fill-opacity:0.4"
     id="path206"
     inkscape:connector-curvature="0" />
  <path
     d="m -70.696567,-140.62643 0.94347,0.88374 6.89696,-1.61285 z"
     style="fill:#000000"
     id="path208"
     inkscape:connector-curvature="0" />
  <path
     d="m -37.162637,-162.72084 -20.69085,-2.89788 m 0,0 -7.93622,7.55518"
     style="fill:none;stroke:#000000;stroke-width:1;stroke-linecap:round"
     id="path210"
     inkscape:connector-curvature="0" />
  <path
     d="m -69.169997,-144.96291 -1.1662,1.11021 7.48006,2.49716 z m -1.1662,1.11021 -0.36037,3.22627 7.84043,-0.72911 z"
     style="fill:#000000"
     id="path212"
     inkscape:connector-curvature="0" />
  <path
     d="m -57.853487,-165.61872 v 41.26096 l -7.93622,-33.70578 z m 12.75463,51.71401 -20.69085,-2.89788 28.62707,-4.65729 z m -12.75463,-10.45305 -7.93622,7.55517 v -41.26095 z m 12.75463,10.45305 7.93622,-7.55517 v -41.26096 z"
     style="fill:#eeeeee;fill-opacity:0.4"
     id="path214"
     inkscape:connector-curvature="0" />
  <path
     d="m -65.789707,-158.06354 v 41.26095 m 0,0 20.69085,2.89788 m 7.93622,-48.81613 -7.93622,7.55517 m 0,0 v 41.26096"
     style="fill:none;stroke:#000000;stroke-width:1;stroke-linecap:round"
     id="path216"
     inkscape:connector-curvature="0" />
  <path
     d="m -45.098857,-155.16567 7.93622,-7.55517 -20.69085,-2.89788 z m -20.69085,38.36308 20.69085,2.89788 v -41.26096 z m 20.69085,-38.36308 v 41.26096 l 7.93622,-48.81613 z m -20.69085,-2.89787 20.69085,2.89787 -12.75463,-10.45305 z m 0,0 v 41.26095 l 20.69085,-38.36308 z m -12.75464,-253.89273 v 528.14031 l -20.69085,-531.03819 z m -20.69085,-2.89788 v 528.14032 l -7.936223,-520.58515 z"
     style="fill:#eeeeee;fill-opacity:0.4"
     id="path218"
     inkscape:connector-curvature="0" />
  <path
     d="m -65.789707,-158.06354 20.69085,2.89787"
     style="fill:none;stroke:#000000;stroke-width:1;stroke-linecap:round"
     id="path220"
     inkscape:connector-curvature="0" />
  <path
     d="m -86.480567,-404.4011 v 528.14032 l 7.93622,-535.69549 z m -20.690853,-2.89788 v 528.14032 l 20.690853,-525.24244 z"
     style="fill:#eeeeee;fill-opacity:0.4"
     id="path222"
     inkscape:connector-curvature="0" />
  <path
     d="m -78.544347,-411.95627 -20.69085,-2.89788 m 0,0 -7.936223,7.55517 m 28.627073,-4.65729 -7.93622,7.55517"
     style="fill:none;stroke:#000000;stroke-width:1;stroke-linecap:round"
     id="path224"
     inkscape:connector-curvature="0" />
  <path
     d="m -86.480567,-404.4011 7.93622,-7.55517 -20.69085,-2.89788 z m -20.690853,-2.89788 20.690853,2.89788 -12.75463,-10.45305 z"
     style="fill:#eeeeee;fill-opacity:0.4"
     id="path226"
     inkscape:connector-curvature="0" />
  <path
     d="m -107.17142,-407.29898 20.690853,2.89788"
     style="fill:none;stroke:#000000;stroke-width:1;stroke-linecap:round"
     id="path228"
     inkscape:connector-curvature="0" />
  <g
     id="g1054"
     transform="translate(-659.46429,-213.27146)">
    <path
       style="fill:none;stroke:#999999;stroke-width:0.69999999;stroke-linecap:butt;stroke-linejoin:miter;stroke-miterlimit:4;stroke-dasharray:none;stroke-opacity:1"
       d="m 518.56386,373.04354 v -5.31659"
       id="path1076"
       inkscape:connector-curvature="0" />
    <path
       style="fill:none;stroke:#b3b3b3;stroke-width:0.69999999;stroke-linecap:butt;stroke-linejoin:miter;stroke-miterlimit:4;stroke-dasharray:none;stroke-opacity:1"
       d="m 518.1972,-252.29821 v 31.53292"
       id="path1072"
       inkscape:connector-curvature="0" />
    <path
       inkscape:connector-curvature="0"
       id="path1049"
       d="m 478.0477,-210.4352 c 15.3998,-18.33309 21.2664,-16.13312 30.0663,-8.06656 8.7999,8.06656 14.6665,9.53321 24.1997,0 9.5332,-9.5332 19.7997,-5.86659 27.1329,2.9333"
       style="fill:none;stroke:#ffffff;stroke-width:14.5;stroke-linecap:butt;stroke-linejoin:miter;stroke-miterlimit:4;stroke-dasharray:none;stroke-opacity:1" />
    <path
       inkscape:connector-curvature="0"
       id="path1045"
       d="m 478.0477,-202.02422 c 15.3998,-18.33309 21.2664,-16.13312 30.0663,-8.06656 8.7999,8.06656 14.6665,9.53321 24.1997,0 9.5332,-9.5332 19.7997,-5.86659 27.1329,2.9333"
       style="fill:none;stroke:#000000;stroke-width:1px;stroke-linecap:butt;stroke-linejoin:miter;stroke-opacity:1" />
    <path
       style="fill:none;stroke:#000000;stroke-width:1px;stroke-linecap:butt;stroke-linejoin:miter;stroke-opacity:1"
       d="m 478.0477,-218.89066 c 15.3998,-18.33309 21.2664,-16.13312 30.0663,-8.06656 8.7999,8.06656 14.6665,9.53321 24.1997,0 9.5332,-9.5332 19.7997,-5.86659 27.1329,2.9333"
       id="path1047"
       inkscape:connector-curvature="0" />
    <path
       style="fill:none;stroke:#000000;stroke-width:0.69999999;stroke-linecap:butt;stroke-linejoin:miter;stroke-miterlimit:4;stroke-dasharray:none;stroke-opacity:1"
       d="m 509.76395,-244.41498 8.4332,-7.88323 20.8998,2.9333 -8.2499,7.88323 z"
       id="path1064"
       inkscape:connector-curvature="0" />
    <path
       style="fill:none;stroke:#000000;stroke-width:0.69999999;stroke-linecap:butt;stroke-linejoin:miter;stroke-miterlimit:4;stroke-dasharray:none;stroke-opacity:1"
       d="m 509.764,-244.41498 v 18.51642"
       id="path1066"
       inkscape:connector-curvature="0" />
    <path
       style="fill:none;stroke:#000000;stroke-width:0.69999999;stroke-linecap:butt;stroke-linejoin:miter;stroke-miterlimit:4;stroke-dasharray:none;stroke-opacity:1"
       d="m 530.847,-241.66502 v 16.13312"
       id="path1068"
       inkscape:connector-curvature="0" />
    <path
       style="fill:none;stroke:#000000;stroke-width:0.69999999;stroke-linecap:butt;stroke-linejoin:miter;stroke-miterlimit:4;stroke-dasharray:none;stroke-opacity:1"
       d="m 539.0969,-249.54825 v 17.96643"
       id="path1070"
       inkscape:connector-curvature="0" />
    <path
       inkscape:connector-curvature="0"
       id="path1074"
       d="m 510.13061,381.29344 8.4332,-7.88323 20.8998,2.9333 -8.2499,7.88323 z"
       style="fill:none;stroke:#000000;stroke-width:0.69999999;stroke-linecap:butt;stroke-linejoin:miter;stroke-miterlimit:4;stroke-dasharray:none;stroke-opacity:1" />
    <path
       style="fill:none;stroke:#000000;stroke-width:0.69999999;stroke-linecap:butt;stroke-linejoin:miter;stroke-miterlimit:4;stroke-dasharray:none;stroke-opacity:1"
       d="M 530.84706,384.22673 V 362.59368"
       id="path1078"
       inkscape:connector-curvature="0" />
    <path
       style="fill:none;stroke:#000000;stroke-width:0.69999999;stroke-linecap:butt;stroke-linejoin:miter;stroke-miterlimit:4;stroke-dasharray:none;stroke-opacity:1"
       d="M 539.46356,376.16017 V 356.91042"
       id="path1080"
       inkscape:connector-curvature="0" />
    <path
       style="fill:none;stroke:#000000;stroke-width:0.69999999;stroke-linecap:butt;stroke-linejoin:miter;stroke-miterlimit:4;stroke-dasharray:none;stroke-opacity:1"
       d="M 509.94726,381.29344 V 362.77701"
       id="path1082"
       inkscape:connector-curvature="0" />
  </g>
  <g
     id="g1062"
     transform="translate(-659.09763,357.97424)">
    <path
       style="fill:none;stroke:#ffffff;stroke-width:12.89999962;stroke-linecap:butt;stroke-linejoin:miter;stroke-miterlimit:4;stroke-dasharray:none;stroke-opacity:1"
       d="m 478.0477,-210.8241 c 15.3998,-18.33309 21.2664,-16.13312 30.0663,-8.06656 8.7999,8.06656 14.6665,9.53321 24.1997,0 9.5332,-9.5332 19.7997,-5.86659 27.1329,2.9333"
       id="path1056"
       inkscape:connector-curvature="0" />
    <path
       style="fill:none;stroke:#000000;stroke-width:1px;stroke-linecap:butt;stroke-linejoin:miter;stroke-opacity:1"
       d="m 478.0477,-202.02422 c 15.3998,-18.33309 21.2664,-16.13312 30.0663,-8.06656 8.7999,8.06656 14.6665,9.53321 24.1997,0 9.5332,-9.5332 19.7997,-5.86659 27.1329,2.9333"
       id="path1058"
       inkscape:connector-curvature="0" />
    <path
       inkscape:connector-curvature="0"
       id="path1060"
       d="m 478.0477,-218.89066 c 15.3998,-18.33309 21.2664,-16.13312 30.0663,-8.06656 8.7999,8.06656 14.6665,9.53321 24.1997,0 9.5332,-9.5332 19.7997,-5.86659 27.1329,2.9333"
       style="fill:none;stroke:#000000;stroke-width:1px;stroke-linecap:butt;stroke-linejoin:miter;stroke-opacity:1" />
  </g>
  <path
     style="fill:none;stroke:#000000;stroke-width:0.69999999;stroke-linecap:butt;stroke-linejoin:miter;stroke-miterlimit:4;stroke-dasharray:none;stroke-opacity:1"
     d="M -120.00076,126.22253 V -428.3535"
     id="path1084"
     inkscape:connector-curvature="0"
     sodipodi:nodetypes="cc" />
  <path
     inkscape:connector-curvature="0"
     id="path1086"
     d="M -128.25065,132.45578 V -422.30358"
     style="fill:none;stroke:#000000;stroke-width:0.69999999;stroke-linecap:butt;stroke-linejoin:miter;stroke-miterlimit:4;stroke-dasharray:none;stroke-opacity:1"
     sodipodi:nodetypes="cc" />
  <path
     inkscape:connector-curvature="0"
     id="path1090"
     d="M -149.51703,132.6391 V -422.12025"
     style="fill:none;stroke:#000000;stroke-width:0.69999999;stroke-linecap:butt;stroke-linejoin:miter;stroke-miterlimit:4;stroke-dasharray:none;stroke-opacity:1"
     sodipodi:nodetypes="cc" />
  <text
     xml:space="preserve"
     style="font-style:normal;font-variant:normal;font-weight:normal;font-stretch:normal;font-size:18.66666603px;line-height:1.25;font-family:'CMU Sans Serif';-inkscape-font-specification:'CMU Sans Serif';letter-spacing:0px;word-spacing:0px;fill:#000000;fill-opacity:1;stroke:none"
     x="-341.6478"
     y="-286.82202"
     id="text1094"><tspan
       sodipodi:role="line"
       x="-341.6478"
       y="-286.82202"
       id="tspan1108">MaxPooling (2x2)</tspan></text>
  <text
     id="text1098"
     y="-408.55374"
     x="-604.17767"
     style="font-style:normal;font-variant:normal;font-weight:normal;font-stretch:normal;font-size:18.66666603px;line-height:1.25;font-family:'CMU Sans Serif';-inkscape-font-specification:'CMU Sans Serif';letter-spacing:0px;word-spacing:0px;fill:#000000;fill-opacity:1;stroke:none"
     xml:space="preserve"><tspan
       y="-408.55374"
       x="-604.17767"
       id="tspan1096"
       sodipodi:role="line">Conv (3x3) - 64</tspan></text>
  <text
     xml:space="preserve"
     style="font-style:normal;font-variant:normal;font-weight:normal;font-stretch:normal;font-size:18.66666603px;line-height:1.25;font-family:'CMU Sans Serif';-inkscape-font-specification:'CMU Sans Serif';letter-spacing:0px;word-spacing:0px;fill:#000000;fill-opacity:1;stroke:none"
     x="-819.77484"
     y="-451.08652"
     id="text1102"><tspan
       sodipodi:role="line"
       x="-819.77484"
       y="-451.08652"
       id="tspan1104">Conv (3x3) - 32</tspan></text>
  <text
     id="text1114"
     y="-476.01953"
     x="-139.25046"
     style="font-style:normal;font-variant:normal;font-weight:normal;font-stretch:normal;font-size:18.66666603px;line-height:1.25;font-family:'CMU Sans Serif';-inkscape-font-specification:'CMU Sans Serif';letter-spacing:0px;word-spacing:0px;fill:#000000;fill-opacity:1;stroke:none"
     xml:space="preserve"><tspan
       id="tspan1112"
       y="-476.01953"
       x="-139.25046"
       sodipodi:role="line">Flatten</tspan></text>
  <text
     xml:space="preserve"
     style="font-style:normal;font-variant:normal;font-weight:normal;font-stretch:normal;font-size:18.66666603px;line-height:1.25;font-family:'CMU Sans Serif';-inkscape-font-specification:'CMU Sans Serif';letter-spacing:0px;word-spacing:0px;fill:#000000;fill-opacity:1;stroke:none"
     x="-93.784393"
     y="-421.7536"
     id="text1118"><tspan
       sodipodi:role="line"
       x="-93.784393"
       y="-421.7536"
       id="tspan1116">Dense</tspan></text>
  <text
     id="text1122"
     y="-179.75677"
     x="-68.85141"
     style="font-style:normal;font-variant:normal;font-weight:normal;font-stretch:normal;font-size:18.66666603px;line-height:1.25;font-family:'CMU Sans Serif';-inkscape-font-specification:'CMU Sans Serif';letter-spacing:0px;word-spacing:0px;fill:#000000;fill-opacity:1;stroke:none"
     xml:space="preserve"><tspan
       id="tspan1120"
       y="-179.75677"
       x="-68.85141"
       sodipodi:role="line">Dense (Softmax)</tspan></text>
  <text
     id="text1126"
     y="-417.35364"
     x="-954.70642"
     style="font-style:normal;font-variant:normal;font-weight:normal;font-stretch:normal;font-size:18.66666603px;line-height:1.25;font-family:'CMU Sans Serif';-inkscape-font-specification:'CMU Sans Serif';letter-spacing:0px;word-spacing:0px;fill:#000000;fill-opacity:1;stroke:none"
     xml:space="preserve"><tspan
       id="tspan1124"
       y="-417.35364"
       x="-954.70642"
       sodipodi:role="line">Input</tspan></text>
  <text
     xml:space="preserve"
     style="font-style:normal;font-variant:normal;font-weight:normal;font-stretch:normal;font-size:18.66666603px;line-height:1.25;font-family:'CMU Sans Serif';-inkscape-font-specification:'CMU Sans Serif';letter-spacing:0px;word-spacing:0px;fill:#000000;fill-opacity:1;stroke:none"
     x="-960.573"
     y="-40.425262"
     id="text1130"><tspan
       sodipodi:role="line"
       x="-960.573"
       y="-40.425262"
       id="tspan1128">28x28x1</tspan></text>
  <text
     id="text1134"
     y="-31.625381"
     x="-859.37433"
     style="font-style:normal;font-variant:normal;font-weight:normal;font-stretch:normal;font-size:18.66666603px;line-height:1.25;font-family:'CMU Sans Serif';-inkscape-font-specification:'CMU Sans Serif';letter-spacing:0px;word-spacing:0px;fill:#000000;fill-opacity:1;stroke:none"
     xml:space="preserve"><tspan
       id="tspan1132"
       y="-31.625381"
       x="-859.37433"
       sodipodi:role="line">26x26x32</tspan></text>
  <text
     xml:space="preserve"
     style="font-style:normal;font-variant:normal;font-weight:normal;font-stretch:normal;font-size:18.66666603px;line-height:1.25;font-family:'CMU Sans Serif';-inkscape-font-specification:'CMU Sans Serif';letter-spacing:0px;word-spacing:0px;fill:#000000;fill-opacity:1;stroke:none"
     x="-571.91144"
     y="-8.1590271"
     id="text1138"><tspan
       sodipodi:role="line"
       x="-571.91144"
       y="-8.1590271"
       id="tspan1136">24x24x64</tspan></text>
  <text
     id="text1142"
     y="-47.758499"
     x="-253.64896"
     style="font-style:normal;font-variant:normal;font-weight:normal;font-stretch:normal;font-size:18.66666603px;line-height:1.25;font-family:'CMU Sans Serif';-inkscape-font-specification:'CMU Sans Serif';letter-spacing:0px;word-spacing:0px;fill:#000000;fill-opacity:1;stroke:none"
     xml:space="preserve"><tspan
       id="tspan1140"
       y="-47.758499"
       x="-253.64896"
       sodipodi:role="line">12x12x64</tspan></text>
  <text
     xml:space="preserve"
     style="font-style:normal;font-variant:normal;font-weight:normal;font-stretch:normal;font-size:18.66666603px;line-height:1.25;font-family:'CMU Sans Serif';-inkscape-font-specification:'CMU Sans Serif';letter-spacing:0px;word-spacing:0px;fill:#000000;fill-opacity:1;stroke:none"
     x="-142.18375"
     y="189.83836"
     id="text1146"><tspan
       sodipodi:role="line"
       x="-142.18375"
       y="189.83836"
       id="tspan1144">9216</tspan></text>
  <text
     id="text1150"
     y="144.3723"
     x="-90.851105"
     style="font-style:normal;font-variant:normal;font-weight:normal;font-stretch:normal;font-size:18.66666603px;line-height:1.25;font-family:'CMU Sans Serif';-inkscape-font-specification:'CMU Sans Serif';letter-spacing:0px;word-spacing:0px;fill:#000000;fill-opacity:1;stroke:none"
     xml:space="preserve"><tspan
       id="tspan1148"
       y="144.3723"
       x="-90.851105"
       sodipodi:role="line">128</tspan></text>
  <text
     xml:space="preserve"
     style="font-style:normal;font-variant:normal;font-weight:normal;font-stretch:normal;font-size:18.66666603px;line-height:1.25;font-family:'CMU Sans Serif';-inkscape-font-specification:'CMU Sans Serif';letter-spacing:0px;word-spacing:0px;fill:#000000;fill-opacity:1;stroke:none"
     x="-55.65152"
     y="-96.157852"
     id="text1154"><tspan
       sodipodi:role="line"
       x="-55.65152"
       y="-96.157852"
       id="tspan1160">10</tspan></text>
</svg>
